<?xml version="1.0" standalone="no"?>
<!DOCTYPE svg PUBLIC "-//W3C//DTD SVG 20010904//EN"
 "http://www.w3.org/TR/2001/REC-SVG-20010904/DTD/svg10.dtd">
<svg version="1.0" xmlns="http://www.w3.org/2000/svg"
 width="479.000000pt" height="554.000000pt" viewBox="0 0 479.000000 554.000000"
 preserveAspectRatio="xMidYMid meet">

<g transform="translate(0.000000,554.000000) scale(0.100000,-0.100000)"
fill="#000000" stroke="none">
<path d="M2440 4620 l0 -440 443 0 442 0 -78 50 -77 50 -310 0 -310 0 0 306 0
307 -51 83 c-29 46 -53 84 -55 84 -2 0 -4 -198 -4 -440z"/>
<path d="M2228 4669 l-3 -384 -383 -5 -382 -5 79 -47 79 -48 356 0 356 0 0
360 0 360 -42 68 c-23 37 -45 71 -50 76 -4 6 -9 -163 -10 -375z"/>
<path d="M1451 4066 c2 -2 41 -26 86 -55 l83 -51 305 0 305 0 1 -587 c1 -374
5 -566 10 -529 11 75 45 198 70 255 18 41 19 70 19 507 l0 464 -442 0 c-243 0
-439 -2 -437 -4z"/>
<path d="M2440 3710 c0 -198 2 -360 4 -360 2 0 27 35 55 78 l51 78 0 227 0
227 104 0 104 0 6 31 c3 17 6 42 6 55 l0 24 -165 0 -165 0 0 -360z"/>
<path d="M2795 4023 c4 -27 10 -51 14 -56 4 -4 122 -6 262 -5 l254 3 -83 53
-83 52 -185 0 -186 0 7 -47z"/>
<path d="M2806 3808 c-17 -178 -63 -294 -227 -580 -77 -132 -129 -238 -143
-289 -4 -13 12 10 36 51 24 42 81 133 127 204 152 234 208 383 218 579 7 121
-1 144 -11 35z"/>
<path d="M2791 3049 c-13 -85 -39 -164 -110 -332 -22 -54 -41 -104 -41 -110 0
-22 118 207 139 271 19 56 42 252 29 252 -2 0 -10 -37 -17 -81z"/>
<path d="M2235 2618 c12 -163 65 -330 145 -459 l30 -49 -109 0 -109 0 -122
221 c-67 121 -126 217 -130 212 -4 -4 -61 -104 -126 -220 l-118 -213 -108 0
-107 0 -16 -30 -16 -31 152 3 151 3 91 164 c51 90 96 164 101 165 5 1 50 -73
101 -164 l92 -165 155 -3 155 -2 -9 57 c-14 84 -3 443 16 528 9 38 16 71 16
72 0 2 -15 3 -34 3 -33 0 -35 -2 -45 -50 -6 -28 -11 -60 -11 -71 0 -12 -4 -17
-11 -13 -8 4 -9 28 -5 70 l7 64 -72 0 -72 0 8 -92z"/>
<path d="M2959 2553 c-51 -8 -132 -66 -163 -117 -52 -83 -47 -206 10 -283 13
-17 24 -34 24 -37 0 -3 -61 -6 -135 -6 l-135 0 1 88 c0 48 6 122 13 165 l12
77 -48 0 -48 0 0 -47 c0 -70 15 -153 47 -254 l28 -89 198 0 197 0 0 34 c0 28
-5 36 -30 46 -60 25 -110 107 -110 180 1 60 63 147 123 169 60 23 153 6 200
-37 52 -47 72 -147 43 -215 -17 -40 -63 -87 -98 -99 -23 -8 -28 -16 -28 -44
l0 -34 188 0 189 0 11 25 c7 14 12 28 12 30 0 3 -61 5 -136 5 l-135 0 26 35
c29 37 55 112 55 155 0 104 -82 215 -181 244 -51 16 -76 17 -130 9z"/>
<path d="M1585 1916 c-131 -61 -182 -203 -117 -327 34 -66 99 -113 178 -129
52 -11 54 -13 40 -29 -9 -10 -16 -24 -16 -32 0 -11 -2 -11 -8 -1 -7 10 -12 8
-25 -6 -33 -37 18 -19 63 22 73 65 150 85 185 46 10 -11 20 -42 23 -70 3 -33
9 -50 18 -50 22 0 28 50 13 94 -11 33 -23 45 -60 63 -32 15 -50 32 -59 53 -11
26 -17 30 -34 24 -12 -4 -51 -8 -88 -8 -57 -1 -70 2 -93 24 -74 69 -72 165 4
220 41 29 120 37 160 17 l31 -16 20 39 c11 22 20 43 20 49 0 16 -91 41 -149
41 -37 0 -73 -8 -106 -24z"/>
<path d="M3170 1922 c-46 -23 -80 -75 -80 -123 0 -48 36 -91 104 -126 52 -26
96 -60 96 -75 0 -4 -9 -17 -20 -28 -27 -27 -75 -25 -128 5 l-42 24 -26 -41
-26 -41 23 -18 c59 -44 191 -56 256 -22 43 23 73 74 73 125 0 50 -48 104 -120
136 -92 40 -111 68 -65 98 25 16 61 13 116 -10 11 -5 20 4 32 29 9 20 17 40
17 44 0 14 -89 41 -134 41 -23 0 -57 -8 -76 -18z"/>
<path d="M3550 1922 c-46 -25 -70 -60 -77 -108 -7 -57 26 -100 111 -145 87
-46 104 -70 70 -103 -23 -23 -74 -20 -127 8 l-46 25 -14 -22 c-43 -66 -43 -66
15 -92 151 -68 298 -15 298 109 0 63 -28 99 -107 137 -109 53 -125 74 -77 106
26 16 58 13 116 -11 13 -6 22 2 37 33 l21 40 -32 17 c-51 26 -146 29 -188 6z"/>
<path d="M3955 1916 c-89 -42 -134 -117 -135 -222 -1 -224 261 -323 413 -155
40 44 57 93 57 164 0 173 -179 287 -335 213z m170 -98 c53 -41 68 -115 39
-187 -20 -50 -54 -73 -110 -73 -55 0 -86 19 -108 65 -31 67 -14 153 39 195 37
30 103 30 140 0z"/>
<path d="M506 1728 c-9 -112 -20 -218 -23 -235 l-5 -33 55 0 55 0 7 117 c12
183 14 184 66 31 l46 -133 34 -3 34 -3 44 128 c24 70 47 132 51 136 4 5 10
-34 14 -85 4 -51 10 -114 13 -140 l6 -48 91 0 91 0 18 50 18 51 92 -3 91 -3
17 -45 17 -45 56 -3 c31 -2 56 -1 56 1 0 2 -42 106 -93 233 l-94 229 -50 3
-50 3 -81 -198 c-91 -223 -85 -222 -102 -13 -6 74 -13 152 -16 173 l-6 37 -54
0 c-62 0 -51 16 -117 -159 l-44 -115 -53 137 -53 137 -57 0 -57 0 -17 -202z
m711 -76 c-27 -2 -51 -1 -53 1 -4 4 9 43 36 112 l12 30 27 -70 27 -70 -49 -3z"/>
<path d="M1882 1748 c3 -169 5 -186 26 -219 31 -50 81 -73 163 -73 80 0 135
25 164 75 18 30 20 56 23 217 l4 182 -56 0 -56 0 0 -163 c0 -193 -5 -207 -76
-207 -31 0 -50 6 -64 20 -18 18 -20 33 -20 185 l0 165 -56 0 -56 0 4 -182z"/>
<path d="M2330 1695 l0 -235 130 0 130 0 0 45 0 45 -80 0 -80 0 0 190 0 190
-50 0 -50 0 0 -235z"/>
<path d="M2642 1748 c3 -169 5 -186 26 -219 30 -50 81 -73 162 -73 80 0 136
25 165 75 18 30 20 56 23 217 l4 182 -56 0 -56 0 0 -163 c0 -193 -5 -207 -76
-207 -31 0 -50 6 -64 20 -18 18 -20 33 -20 185 l0 165 -56 0 -56 0 4 -182z"/>
<path d="M1589 1333 c-13 -16 -12 -17 4 -4 9 7 17 15 17 17 0 8 -8 3 -21 -13z"/>
<path d="M2138 1162 c9 -10 19 -17 21 -16 6 5 -20 34 -30 34 -5 0 -1 -8 9 -18z"/>
<path d="M2619 1160 c-1 -11 -3 -24 -4 -30 -1 -5 -3 -14 -4 -19 -1 -11 -149
-121 -162 -121 -16 0 -9 54 12 99 11 25 17 51 15 58 -6 15 -46 18 -46 3 0 -5
8 -6 17 -3 12 5 6 -8 -17 -37 -19 -24 -29 -41 -23 -37 10 6 11 -2 7 -35 -5
-34 -2 -47 10 -58 15 -11 22 -11 54 4 20 10 54 31 75 48 21 17 40 28 43 25 3
-3 -2 -22 -10 -42 -20 -47 -20 -45 4 -45 22 0 45 44 34 62 -4 7 -2 8 4 4 6 -4
11 1 10 11 0 10 3 44 7 76 6 49 5 57 -9 57 -9 0 -17 -9 -17 -20z"/>
<path d="M3198 1162 c9 -10 19 -17 21 -16 6 5 -20 34 -30 34 -5 0 -1 -8 9 -18z"/>
<path d="M2043 1111 c-26 -33 -56 -70 -66 -83 -18 -23 -18 -23 -14 31 3 36 1
48 -5 37 -5 -9 -13 -14 -19 -11 -5 4 -9 -4 -9 -15 0 -15 -5 -20 -14 -17 -9 4
-15 -4 -18 -23 -3 -21 -1 -27 10 -23 10 4 13 -2 12 -23 -4 -58 0 -74 18 -74
11 0 25 18 40 53 29 67 119 187 140 187 15 0 15 2 2 10 -24 15 -27 13 -77 -49z"/>
<path d="M2842 1161 c-7 -4 -19 -20 -27 -34 l-14 -27 30 22 29 22 17 -24 16
-23 9 23 c14 38 -24 64 -60 41z"/>
<path d="M3103 1111 c-26 -33 -56 -70 -65 -83 l-17 -23 -1 36 c0 24 -6 39 -16
43 -23 9 -26 8 -20 -11 3 -10 2 -40 -2 -68 -17 -115 16 -129 65 -27 34 70 104
163 131 173 14 5 13 6 -2 12 -10 4 -19 7 -21 7 -3 0 -26 -27 -52 -59z"/>
<path d="M2241 1078 c-22 -29 -54 -70 -72 -91 -47 -56 -26 -58 26 -2 25 26 45
42 45 34 1 -34 16 -42 46 -24 16 9 21 14 11 11 -27 -8 -30 15 -8 66 18 44 18
58 0 58 -5 0 -26 -24 -48 -52z"/>
<path d="M2998 1118 c-7 -18 -1 -28 19 -28 7 0 13 7 13 16 0 8 -4 13 -9 10 -5
-4 -11 -1 -13 6 -3 8 -6 6 -10 -4z"/>
<path d="M3303 1083 c-16 -21 -37 -51 -47 -66 -9 -16 -26 -37 -38 -49 -11 -11
-17 -22 -14 -25 7 -8 63 51 108 115 42 59 34 81 -9 25z"/>
<path d="M2112 1071 c-7 -21 -12 -47 -11 -57 0 -11 7 5 15 35 17 62 13 81 -4
22z"/>
<path d="M3172 1068 c-23 -89 -24 -104 -6 -119 15 -12 17 -12 9 0 -11 19 -8
76 6 118 6 19 9 36 6 39 -2 2 -9 -15 -15 -38z"/>
<path d="M2840 1015 c-31 -17 -100 -20 -100 -3 0 6 -3 8 -6 5 -14 -13 19 -37
50 -36 29 0 83 17 62 18 -6 1 -1 8 10 16 24 18 16 19 -16 0z"/>
<path d="M2090 977 c0 -8 6 -20 14 -26 12 -10 13 -8 9 9 -7 25 -23 37 -23 17z"/>
<path d="M1491 615 c-1 -87 14 -115 63 -115 19 0 39 7 46 15 17 21 27 165 11
165 -7 0 -11 -25 -11 -73 0 -78 -9 -97 -46 -97 -34 0 -47 26 -54 103 l-7 72
-2 -70z"/>
<path d="M1684 590 c0 -52 1 -74 3 -47 2 26 2 68 0 95 -2 26 -3 4 -3 -48z"/>
<path d="M1731 645 c-17 -20 -31 -39 -31 -43 0 -12 65 -102 73 -102 10 0 2 14
-35 61 l-28 37 30 37 c17 21 30 39 30 41 0 10 -10 1 -39 -31z"/>
<path d="M2140 590 c0 -84 1 -90 21 -90 37 0 59 19 59 50 0 16 -5 32 -10 35
-7 4 -7 13 0 26 18 32 -12 69 -56 69 -11 0 -14 -19 -14 -90z m51 70 c6 0 9
-12 7 -27 -2 -20 -9 -29 -25 -31 -20 -3 -23 1 -23 33 0 30 3 36 16 31 9 -3 20
-6 25 -6z m13 -92 c14 -23 -3 -52 -33 -56 -19 -3 -21 1 -21 38 0 37 2 41 21
38 12 -2 27 -11 33 -20z"/>
<path d="M2274 590 c0 -52 1 -74 3 -47 2 26 2 68 0 95 -2 26 -3 4 -3 -48z"/>
<path d="M2332 588 c1 -75 2 -83 7 -43 l6 50 28 -48 c16 -27 31 -47 33 -44 3
2 -5 21 -17 42 -20 34 -21 38 -6 47 24 13 22 65 -2 78 -46 24 -51 16 -49 -82z
m42 69 c24 -18 17 -51 -12 -55 -19 -3 -22 1 -22 32 0 39 6 43 34 23z"/>
<path d="M2664 590 c0 -52 1 -74 3 -47 2 26 2 68 0 95 -2 26 -3 4 -3 -48z"/>
<path d="M2862 613 c-1 -40 -5 -73 -8 -73 -3 0 -35 30 -70 68 l-63 67 1 -90
c2 -88 2 -88 5 -17 2 39 7 72 11 72 4 0 34 -32 67 -70 l60 -70 3 45 c2 25 1
66 -1 93 -3 36 -4 30 -5 -25z"/>
<path d="M2940 652 c-40 -41 -41 -83 -1 -123 38 -37 82 -39 116 -4 14 13 25
33 25 45 0 16 -6 20 -32 19 -31 -2 -31 -2 -5 -6 15 -2 27 -10 27 -17 0 -21
-45 -56 -71 -56 -83 0 -105 119 -27 151 25 10 35 9 66 -5 32 -15 35 -15 21 -1
-8 8 -32 18 -52 22 -31 5 -40 1 -67 -25z"/>
<path d="M3123 590 c0 -52 2 -73 4 -47 l4 48 52 -3 52 -3 6 -45 c4 -31 6 -15
6 50 0 59 -2 80 -6 55 l-6 -40 -50 0 -50 0 -6 40 c-4 25 -6 3 -6 -55z"/>
<path d="M2467 645 c-4 -16 -9 -48 -13 -70 -3 -22 -8 -49 -11 -60 -3 -11 -2
-16 3 -12 5 5 14 34 20 65 l11 57 29 -63 29 -63 24 60 c13 33 27 58 31 56 4
-3 11 -30 15 -61 4 -30 9 -53 12 -50 3 3 0 42 -7 88 l-13 83 -32 -70 -32 -70
-23 50 c-12 28 -25 59 -30 70 -6 18 -8 16 -13 -10z"/>
<path d="M3335 636 c-36 -85 -54 -136 -50 -136 2 0 11 14 20 30 13 25 22 30
51 30 31 0 37 -4 47 -30 6 -16 15 -30 19 -30 6 0 -57 158 -67 169 -3 2 -12
-13 -20 -33z m43 -62 c-4 -3 -17 -4 -30 -2 -24 3 -24 4 -10 38 l14 35 16 -32
c9 -18 13 -35 10 -39z"/>
<path d="M3583 628 c-12 -25 -24 -56 -28 -67 -10 -33 -19 -25 -44 39 -13 33
-27 60 -31 60 -8 0 -32 -151 -26 -158 5 -4 8 5 23 88 l8 45 25 -63 c13 -34 27
-62 31 -62 3 0 17 28 31 63 l26 62 7 -50 c8 -51 24 -102 24 -75 0 8 -6 49 -13
90 l-12 75 -21 -47z"/>
<path d="M1933 553 c15 -2 37 -2 50 0 12 2 0 4 -28 4 -27 0 -38 -2 -22 -4z"/>
</g>
</svg>
